<svg width="218" height="50" viewBox="0 0 218 50" fill="none" xmlns="http://www.w3.org/2000/svg">
<g clip-path="url(#clip0_667_16956)">
<mask id="mask0_667_16956" style="mask-type:luminance" maskUnits="userSpaceOnUse" x="0" y="0" width="35" height="50">
<path d="M34.1303 38.2024L24.8255 49.0671H8.11093C3.65072 49.0671 0.00088501 45.4178 0.00088501 40.9576V32.8475H17.3616L23.4531 25.7355L34.1308 38.2028L34.1303 38.2024ZM23.4527 23.3321L17.3612 16.2196H0.00088501V8.11004C0.00088501 3.64935 3.65024 0 8.11093 0H24.8255L34.1303 10.8648L23.4527 23.3321Z" fill="white"/>
</mask>
<g mask="url(#mask0_667_16956)">
<path d="M34.1303 0H0.00088501V49.0667H34.1303V0Z" fill="white"/>
</g>
<mask id="mask1_667_16956" style="mask-type:luminance" maskUnits="userSpaceOnUse" x="24" y="0" width="47" height="50">
<path d="M45.8344 24.5336L52.9546 16.2196H70.3153V8.11004C70.3153 3.64935 66.666 0 62.2053 0H45.4907L34.985 12.2668L24.4792 24.5336L34.985 36.8004L45.4907 49.0671H62.2053C66.6655 49.0671 70.3153 45.4178 70.3153 40.9576V32.848H52.9546L45.8344 24.534V24.5336Z" fill="white"/>
</mask>
<g mask="url(#mask1_667_16956)">
<path d="M70.3153 0H24.4792V49.0667H70.3153V0Z" fill="#1AB6F9"/>
</g>
<path opacity="0.15" fill-rule="evenodd" clip-rule="evenodd" d="M23.4537 21.4809L32.5464 10.864L24.2727 1.20312H8.11192C4.31561 1.20312 1.20572 4.31302 1.20572 8.10932V15.0155H17.9164L23.4537 21.4814V21.4809Z" fill="white"/>
</g>
<path d="M203.13 40.5181V26.2266H216.511V29.5669H207.666V31.8445H214.195V35.014H207.666V37.1777H216.738V40.5181H203.13Z" fill="white"/>
<path d="M192.631 29.5882C191.77 29.5882 191.093 29.6261 190.6 29.702C190.397 29.7273 190.233 29.8159 190.106 29.9678C189.98 30.1196 189.917 30.2967 189.917 30.4992V36.3069C189.917 36.522 189.98 36.7054 190.106 36.8573C190.233 37.0091 190.397 37.0977 190.6 37.123C191.144 37.1863 191.821 37.2179 192.631 37.2179C193.453 37.2179 194.136 37.1863 194.68 37.123C194.883 37.0977 195.047 37.0091 195.174 36.8573C195.3 36.7054 195.364 36.522 195.364 36.3069V32.549H199.9V40.5203H195.364V38.4705H194.984C194.769 39.913 193.845 40.6342 192.213 40.6342C190.454 40.6342 189.157 40.5962 188.322 40.5203C187.386 40.4317 186.659 40.1344 186.14 39.6283C185.634 39.1095 185.381 38.4262 185.381 37.5785V29.1896C185.381 28.3419 185.634 27.6649 186.14 27.1588C186.659 26.64 187.386 26.3364 188.322 26.2478C189.018 26.1972 190.442 26.1719 192.593 26.1719H199.198V29.5882H192.631Z" fill="white"/>
<path d="M167.508 40.5181V26.2266H171.513L177.492 30.2122V26.2266H182.028V40.5181H177.492V34.8812L172.045 31.2561V40.5181H167.508Z" fill="white"/>
<path d="M160.158 26.2266C160.626 26.2266 160.955 26.4353 161.145 26.8529L164.2 33.6665C164.39 34.084 164.485 34.5142 164.485 34.9571V40.5181H159.93V37.6901H154.065V40.5181H149.529V34.9571C149.529 34.4889 149.618 34.0587 149.795 33.6665L152.889 26.8529C153.053 26.4353 153.369 26.2266 153.838 26.2266H160.158ZM154.274 34.5016H159.74L157.292 29.3012H156.703L154.274 34.5016Z" fill="white"/>
<path d="M132.017 40.5181V26.2266H136.553V31.1992H142V26.2266H146.536V40.5181H142V34.5965H136.553V40.5181H132.017Z" fill="white"/>
<path d="M124.27 35.1893H128.806V37.5807C128.806 38.4285 128.547 39.1118 128.028 39.6305C127.509 40.1366 126.788 40.434 125.864 40.5226C125.029 40.5985 123.587 40.6364 121.537 40.6364C119.5 40.6364 118.064 40.5985 117.229 40.5226C116.292 40.434 115.565 40.1366 115.046 39.6305C114.54 39.1118 114.287 38.4285 114.287 37.5807V29.1919C114.287 28.3441 114.54 27.6608 115.046 27.1421C115.565 26.6233 116.292 26.3196 117.229 26.2311C118.064 26.1551 119.5 26.1172 121.537 26.1172C123.587 26.1172 125.029 26.1551 125.864 26.2311C126.801 26.3196 127.522 26.6233 128.028 27.1421C128.547 27.6608 128.806 28.3441 128.806 29.1919L128.787 31.5643H124.27V30.4445C124.27 30.2294 124.207 30.0459 124.08 29.8941C123.954 29.7423 123.789 29.6537 123.587 29.6284C122.929 29.5525 122.245 29.5145 121.537 29.5145C120.841 29.5145 120.164 29.5525 119.506 29.6284C119.304 29.6537 119.139 29.7423 119.013 29.8941C118.886 30.0459 118.823 30.2294 118.823 30.4445V36.3091C118.823 36.5242 118.886 36.7077 119.013 36.8595C119.139 37.0114 119.304 37.0999 119.506 37.1252C120.05 37.1885 120.727 37.2201 121.537 37.2201C122.359 37.2201 123.043 37.1885 123.587 37.1252C123.789 37.0999 123.954 37.0114 124.08 36.8595C124.207 36.7077 124.27 36.5242 124.27 36.3091V35.1893Z" fill="white"/>
<path d="M96.5585 26.2266H100.772V28.599L103.809 30.7816L106.845 28.599V26.2266H111.059V29.7378C111.059 30.2059 110.869 30.5665 110.489 30.8196L107.187 33.192L110.717 35.7352C111.097 36.0136 111.287 36.3742 111.287 36.8171V40.556H107.073V37.9369L103.809 35.6214L100.563 37.9369V40.556H96.3308V36.8171C96.3308 36.3742 96.5206 36.0136 96.9002 35.7352L100.43 33.192L97.1279 30.8196C96.7483 30.5665 96.5585 30.2059 96.5585 29.7378V26.2266Z" fill="white"/>
<path d="M80.1325 40.5181V26.2266H93.513V29.5669H84.6686V31.8445H91.1975V35.014H84.6686V37.1777H93.7407V40.5181H80.1325Z" fill="white"/>
<path d="M215.059 19.7267C214.578 19.752 213.515 19.7646 211.87 19.7646H208.036L208.017 23.4087H203.481V9.11719H211.87C213.275 9.11719 214.337 9.13617 215.059 9.17413C215.919 9.22474 216.621 9.55371 217.165 10.1611C217.722 10.7557 218 11.5023 218 12.4006V16.4812C218 17.3922 217.728 18.1451 217.184 18.7397C216.64 19.3344 215.932 19.6634 215.059 19.7267ZM212.762 12.5145C212.357 12.5145 211.788 12.5208 211.054 12.5335C210.333 12.5335 209.662 12.5398 209.042 12.5525C208.422 12.5525 208.08 12.5525 208.017 12.5525V16.3104H212.762C212.977 16.3104 213.148 16.2471 213.275 16.1206C213.401 15.9941 213.464 15.8296 213.464 15.6271V13.2357C213.464 13.0333 213.401 12.8688 213.275 12.7423C213.148 12.6031 212.977 12.5272 212.762 12.5145Z" fill="white"/>
<path d="M186.722 20.4636V12.0747C186.722 11.2269 186.975 10.5437 187.481 10.0249C188 9.50612 188.727 9.20245 189.663 9.11388C190.498 9.03796 191.935 9 193.972 9C196.021 9 197.464 9.03796 198.299 9.11388C199.235 9.20245 199.957 9.50612 200.463 10.0249C200.981 10.5437 201.241 11.2269 201.241 12.0747V20.4636C201.241 21.3113 200.981 21.9946 200.463 22.5133C199.944 23.0194 199.223 23.3168 198.299 23.4054C197.464 23.4813 196.021 23.5192 193.972 23.5192C191.935 23.5192 190.498 23.4813 189.663 23.4054C188.727 23.3168 188 23.0194 187.481 22.5133C186.975 21.9946 186.722 21.3113 186.722 20.4636ZM191.941 20.0081C192.485 20.0713 193.162 20.1029 193.972 20.1029C194.794 20.1029 195.477 20.0713 196.021 20.0081C196.224 19.9827 196.388 19.8942 196.515 19.7423C196.641 19.5905 196.705 19.407 196.705 19.1919V13.3273C196.705 13.1122 196.641 12.9287 196.515 12.7769C196.388 12.6251 196.224 12.5365 196.021 12.5112C195.364 12.4353 194.68 12.3973 193.972 12.3973C193.276 12.3973 192.599 12.4353 191.941 12.5112C191.738 12.5365 191.574 12.6251 191.447 12.7769C191.321 12.9287 191.258 13.1122 191.258 13.3273V19.1919C191.258 19.407 191.321 19.5905 191.447 19.7423C191.574 19.8942 191.738 19.9827 191.941 20.0081Z" fill="white"/>
<path d="M169.988 23.4087V9.11719H174.524V14.0898H179.971V9.11719H184.507V23.4087H179.971V17.4871H174.524V23.4087H169.988Z" fill="white"/>
<path d="M168.011 18.0944V20.4669C168.011 21.3526 167.739 22.0675 167.195 22.6115C166.663 23.143 165.955 23.4087 165.069 23.4087H154.421V20.0683H162.583C162.785 20.0683 162.943 20.005 163.057 19.8785C163.184 19.752 163.247 19.5875 163.247 19.385V18.9865C163.247 18.784 163.184 18.6132 163.057 18.474C162.943 18.3222 162.785 18.2336 162.583 18.2083L156.433 17.3163C155.699 17.2277 155.105 16.9177 154.649 16.3863C154.194 15.8549 153.966 15.2159 153.966 14.4694V12.078C153.966 11.1923 154.232 10.4774 154.763 9.9333C155.307 9.38923 156.022 9.11719 156.908 9.11719H167.119V12.4576H159.641C159.438 12.4576 159.274 12.5208 159.147 12.6474C159.033 12.7739 158.976 12.9384 158.976 13.1408V13.5963C158.976 13.7861 159.033 13.9569 159.147 14.1088C159.274 14.248 159.438 14.3302 159.641 14.3555L165.543 15.2286C166.29 15.3424 166.885 15.6651 167.327 16.1965C167.783 16.7153 168.011 17.3479 168.011 18.0944Z" fill="white"/>
<path d="M145.881 15.2031H152.467V18.1639H145.881V15.2031Z" fill="#1AB6F9"/>
<path d="M141.216 23.3517C140.495 23.3897 139.432 23.4087 138.028 23.4087H129.639V9.11719H138.028C139.432 9.11719 140.495 9.13617 141.216 9.17413C142.076 9.22474 142.779 9.55371 143.323 10.1611C143.879 10.7557 144.158 11.5023 144.158 12.4006V20.1252C144.158 21.0236 143.879 21.7764 143.323 22.3838C142.779 22.9785 142.076 23.3011 141.216 23.3517ZM138.92 12.5145C138.515 12.5145 137.945 12.5208 137.211 12.5335C136.49 12.5335 135.82 12.5398 135.2 12.5525C134.58 12.5525 134.238 12.5525 134.175 12.5525V19.9544C134.263 19.9544 134.599 19.9608 135.181 19.9734C135.775 19.9734 136.446 19.9797 137.192 19.9924C137.939 19.9924 138.515 19.9924 138.92 19.9924C139.122 19.9924 139.286 19.9291 139.413 19.8026C139.552 19.6634 139.622 19.4863 139.622 19.2712V13.2357C139.622 13.0333 139.559 12.8688 139.432 12.7423C139.305 12.6031 139.135 12.5272 138.92 12.5145Z" fill="white"/>
<path d="M112.939 23.4087V9.11719H121.024C122.441 9.11719 123.504 9.13617 124.212 9.17413C125.073 9.22474 125.775 9.55371 126.319 10.1611C126.876 10.7557 127.154 11.5023 127.154 12.4006V13.4824C127.154 14.3682 126.889 15.1147 126.357 15.722C125.838 16.3167 125.161 16.6457 124.326 16.7089V17.0126C126.25 17.1012 127.211 17.9869 127.211 19.6697V21.9852C127.211 22.3142 127.274 22.5989 127.401 22.8393C127.54 23.067 127.705 23.1809 127.894 23.1809V23.4087H123.776C123.358 23.4087 123.029 23.3011 122.789 23.086C122.561 22.8583 122.447 22.5419 122.447 22.1371V19.6508C122.447 19.3344 122.352 19.0877 122.163 18.9106C121.973 18.7208 121.726 18.6259 121.422 18.6259H117.475V23.4087H112.939ZM121.916 12.5335C119.069 12.5335 117.589 12.5272 117.475 12.5145V15.4563C117.5 15.4563 118.114 15.4626 119.316 15.4753C120.518 15.4753 121.385 15.4753 121.916 15.4753C122.131 15.4753 122.302 15.412 122.428 15.2855C122.555 15.159 122.618 14.9881 122.618 14.773V13.2167C122.618 13.0016 122.549 12.8308 122.409 12.7043C122.283 12.5778 122.118 12.5208 121.916 12.5335Z" fill="white"/>
<path d="M106.727 9.11719C107.195 9.11719 107.524 9.32596 107.714 9.74351L110.769 16.5571C110.959 16.9747 111.054 17.4049 111.054 17.8477V23.4087H106.499V20.5807H100.634V23.4087H96.0982V17.8477C96.0982 17.3796 96.1868 16.9494 96.3639 16.5571L99.4576 9.74351C99.622 9.32596 99.9384 9.11719 100.407 9.11719H106.727ZM100.843 17.3922H106.309L103.861 12.1919H103.272L100.843 17.3922Z" fill="white"/>
<path d="M89.9832 18.0722H94.5192V20.4636C94.5192 21.3113 94.2599 21.9946 93.7411 22.5133C93.2223 23.0194 92.5011 23.3168 91.5774 23.4054C90.7423 23.4813 89.2999 23.5192 87.2501 23.5192C85.213 23.5192 83.7769 23.4813 82.9418 23.4054C82.0055 23.3168 81.2779 23.0194 80.7592 22.5133C80.2531 21.9946 80 21.3113 80 20.4636V12.0747C80 11.2269 80.2531 10.5437 80.7592 10.0249C81.2779 9.50612 82.0055 9.20245 82.9418 9.11388C83.7769 9.03796 85.213 9 87.2501 9C89.2999 9 90.7423 9.03796 91.5774 9.11388C92.5137 9.20245 93.235 9.50612 93.7411 10.0249C94.2599 10.5437 94.5192 11.2269 94.5192 12.0747L94.5003 14.4471H89.9832V13.3273C89.9832 13.1122 89.9199 12.9287 89.7934 12.7769C89.6668 12.6251 89.5024 12.5365 89.2999 12.5112C88.642 12.4353 87.9587 12.3973 87.2501 12.3973C86.5542 12.3973 85.8773 12.4353 85.2193 12.5112C85.0169 12.5365 84.8524 12.6251 84.7259 12.7769C84.5993 12.9287 84.5361 13.1122 84.5361 13.3273V19.1919C84.5361 19.407 84.5993 19.5905 84.7259 19.7423C84.8524 19.8942 85.0169 19.9827 85.2193 20.0081C85.7634 20.0713 86.4403 20.1029 87.2501 20.1029C88.0726 20.1029 88.7558 20.0713 89.2999 20.0081C89.5024 19.9827 89.6668 19.8942 89.7934 19.7423C89.9199 19.5905 89.9832 19.407 89.9832 19.1919V18.0722Z" fill="white"/>
<defs>
<clipPath id="clip0_667_16956">
<rect width="70.3171" height="49.0667" fill="white"/>
</clipPath>
</defs>
</svg>
